# AST/ASF file generated using VICON BodyLanguage
# -----------------------------------------------
:version 1.10
:name VICON
:units
  mass 1.0
  length 0.45
  angle deg
:documentation
   .ast/.asf automatically generated from VICON data using
   VICON BodyBuilder and BodyLanguage model FoxedUp or BRILLIANT.MOD
:root
   order TX TY TZ RX RY RZ
   axis XYZ
   position 0 0 0  
   orientation 0 0 0 
:bonedata
  begin
     id 1 
     name lhipjoint
     direction 0.645893 -0.654526 0.392961 
     length 2.38111 
     axis 0 0 0  XYZ
  end
  begin
     id 2 
     name lfemur
     direction 0.34202 -0.939693 0  
     length 6.6822  
     axis 0 0 20  XYZ
    dof rx ry rz
    limits (-160.0 20.0)
           (-70.0 70.0)
           (-60.0 70.0)
  end
  begin
     id 3 
     name ltibia
     direction 0.34202 -0.939693 0   
     length 6.93904   
     axis 0 0 20   XYZ
    dof rx
    limits (-10.0 170.0)
  end
  begin
     id 4 
     name lfoot
     direction 0.0694967 -0.190941 0.979138   
     length 2.13616   
     axis -90 7.62852e-016 20   XYZ
    dof rx rz
    limits (-45.0 90.0)
           (-70.0 20.0)
  end
  begin
     id 5 
     name ltoes
     direction 1.535e-011 -4.2202e-011 1   
     length 1.07536   
     axis -90 7.62852e-016 20   XYZ
    dof rx
    limits (-90.0 20.0)
  end
  begin
     id 6 
     name rhipjoint
     direction -0.700219 -0.612087 0.367481   
     length 2.54621  
     axis 0 0 0  XYZ 
  end
  begin
     id 7 
     name rfemur
     direction -0.34202 -0.939693 0   
     length 6.55353   
     axis 0 0 -20   XYZ
    dof rx ry rz
    limits (-160.0 20.0)
           (-70.0 70.0)
           (-70.0 60.0)
  end
  begin
     id 8 
     name rtibia
     direction -0.34202 -0.939693 0   
     length 6.8736   
     axis 0 0 -20   XYZ
    dof rx
    limits (-10.0 170.0)
 end
 begin
     id 9 
     name rfoot
     direction -0.0679995 -0.186827 0.980037   
     length 2.1218  
     axis -90 -7.62852e-016 -20   XYZ
    dof rx rz
    limits (-45.0 90.0)
           (-20.0 70.0)
  end
  begin
     id 10 
     name rtoes
     direction -1.53589e-011 -4.21772e-011 1   
     length 1.06864   
     axis -90 -7.62852e-016 -20   XYZ
    dof rx
    limits (-90.0 20.0)
  end
  begin
     id 11 
     name lowerback
     direction -0.0416607 0.996347 -0.0745409   
     length 2.12205   
     axis 0 0 0   XYZ
    dof rx ry rz
    limits (-20.0 45.0)
           (-30.0 30.0)
           (-30.0 30.0)
  end
  begin
     id 12 
     name upperback
     direction -0.000153993 0.999276 -0.0380568   
     length 2.12759   
     axis 0 0 0   XYZ
    dof rx ry rz
    limits (-20.0 45.0)
           (-30.0 30.0)
           (-30.0 30.0)
  end
  begin
     id 13 
     name thorax
     direction 0.0187671 0.999821 -0.00241421   
     length 2.13704   
     axis 0 0 0   XYZ
    dof rx ry rz
    limits (-20.0 45.0)
           (-30.0 30.0)
           (-30.0 30.0)
  end
  begin
     id 14 
     name lowerneck
     direction 0.0268157 0.964865 0.261374   
     length 1.65253   
     axis 0 0 0   XYZ
    dof rx ry rz
    limits (-20.0 45.0)
           (-30.0 30.0)
           (-30.0 30.0)
  end
  begin
     id 15 
     name upperneck
     direction 0.00263774 0.939908 -0.341418   
     length 1.72375   
     axis 0 0 0   XYZ
    dof rx ry rz
    limits (-20.0 45.0)
           (-30.0 30.0)
           (-30.0 30.0)
  end
  begin
     id 16
     name head
     direction -0.00526001 0.989001 -0.147818  
     length 1.74878  
     axis 0 0 0   XYZ
    dof rx ry rz
    limits (-20.0 45.0)
           (-30.0 30.0)
           (-30.0 30.0)
  end
  begin
     id 17 
     name lclavicle
     direction 0.881214 0.461162 -0.103884  
     length 3.25108  
     axis 0 0 0   XYZ
    dof ry rz
    limits (-20.0 10.0)
           (0.0 20.0)
  end
  begin
     id 18 
     name lhumerus
     direction 1 -4.4899e-011 3.38092e-027   
     length 4.87408   
     axis 180 -30 -90   XYZ
    dof rx ry rz
    limits (-60.0 90.0)
           (-90.0 90.0)
           (-90.0 90.0)
  end
  begin
     id 19
     name lradius
     direction 1 -4.48931e-011 9.96288e-027   
     length 2.76729   
     axis 180 -30 -90   XYZ
    dof rx
    limits (-10.0 170.0)
  end
  begin
     id 20
     name lwrist
     direction 1 -4.4896e-011 1.50617e-026   
     length 1.38364   
     axis -9.31234e-015 90 90   XYZ
    dof ry
    limits (-180.0 0.0)
 end
  begin
     id 21 
     name lhand
     direction 1 -4.49038e-011 3.01286e-026   
     length 0.98922   
     axis -1.92217e-014 90 90   XYZ
    dof rx rz
    limits (-90.0 90.0)
           (-45.0 45.0)
  end
  begin
     id 22 
     name lfingers
     direction 1 -4.49051e-011 6.02588e-026   
     length 0.797535   
     axis -3.84436e-014 90 90   XYZ
    dof rx
    limits (0.0 90.0)
  end
  begin
     id 23
     name lthumb
     direction 0.707107 -6.34901e-011 0.707107   
     length 1.14511   
     axis -90 45 2.19363e-014   XYZ
    dof rx rz
    limits (-45.0 45.0)
           (-45.0 45.0)
  end
  begin
     id 24 
     name rclavicle
     direction -0.893894 0.441652 -0.0767889   
     length 3.29361  
     axis 0 0 0   XYZ 
    dof ry rz
    limits (-10.0 20.0)
           (-20.0 0.0)
  end
  begin
     id 25 
     name rhumerus
     direction -1 -4.48945e-011 8.0491e-028  
     length 4.71404   
     axis 180 30 90   XYZ
    dof rx ry rz
    limits (-90.0 60.0)
           (-90.0 90.0)
           (-90.0 90.0)
  end
  begin
     id 26 
     name rradius
     direction -1 -4.48986e-011 9.27795e-027   
     length 2.83468   
     axis 180 30 90   XYZ
    dof rx
    limits (-10.0 170.0)
  end
  begin
     id 27 
     name rwrist
     direction -1 -4.49029e-011 1.5064e-026   
     length 1.41734   
     axis -9.31234e-015 -90 -90   XYZ
    dof ry
    limits (-180.0 0.0)
  end
  begin
     id 28
     name rhand
     direction -1 -4.48857e-011 3.01165e-026   
     length 0.868195   
     axis -1.92217e-014 -90 -90   XYZ
    dof rx rz
    limits (-90.0 90.0)
           (-45.0 45.0)
  end
  begin
     id 29
     name rfingers
     direction -1 -4.49048e-011 6.02585e-026   
     length 0.699961   
     axis -3.84436e-014 -90 -90   XYZ
    dof rx
    limits (0.0 90.0)
  end
  begin
     id 30
     name rthumb
     direction -0.707107 -6.34854e-011 0.707107   
     length 1.00501   
     axis -90 -45 -2.19363e-014   XYZ
    dof rx rz
    limits (-45.0 45.0)
           (-45.0 45.0)
  end
:hierarchy
  begin
    root lhipjoint rhipjoint lowerback
    lhipjoint lfemur
    lfemur ltibia
    ltibia lfoot
    lfoot ltoes
    rhipjoint rfemur
    rfemur rtibia
    rtibia rfoot
    rfoot rtoes
    lowerback upperback
    upperback thorax
    thorax lowerneck lclavicle rclavicle
    lowerneck upperneck
    upperneck head
    lclavicle lhumerus
    lhumerus lradius
    lradius lwrist
    lwrist lhand lthumb
    lhand lfingers
    rclavicle rhumerus
    rhumerus rradius
    rradius rwrist
    rwrist rhand rthumb
    rhand rfingers
  end

#!OML:ASF H:\ManfredObstacles\Project 1\Capture day 2\Session 1\male.ASF
:FULLY-SPECIFIED
:DEGREES
143
root 1.73032 16.3043 2.26811 -166.343 -1.23565 179.012
lowerback -6.02284 0.566159 -6.09169
upperback 0.425363 1.18065 -0.813689
thorax 3.71833 0.453096 2.68091
lowerneck -38.4567 -2.01419 -0.590399
upperneck 36.1719 -5.29585 2.98375
head 21.1054 -1.8641 0.0266087
rclavicle -3.47873e-015 1.15295e-014
rhumerus -37.2885 -29.2131 -71.5655
rradius 22.3086
rwrist 42.1206
rhand -3.62822 -9.25824
rfingers 7.12502
rthumb 22.1109 -38.014
lclavicle -3.47873e-015 1.15295e-014
lhumerus -38.0366 33.9464 63.4866
lradius 13.9632
lwrist -73.0538
lhand -2.32105 5.63701
lfingers 7.12502
lthumb 23.3654 34.2388
rfemur -20.9394 5.4923 21.6679
rtibia 32.7655
rfoot -7.21102 -16.5283
rtoes -12.1296
lfemur -18.8064 -7.6373 -22.3897
ltibia 33.0958
lfoot 1.88079 23.0632
ltoes 9.14308
144
root 1.73351 16.294 2.25046 -166.311 -1.42304 179.019
lowerback -5.93664 0.614771 -5.95741
upperback 0.52634 1.2368 -0.891572
thorax 3.77412 0.480875 2.52915
lowerneck -38.1896 -2.25728 -1.06405
upperneck 36.256 -5.65111 3.47464
head 21.1564 -2.00169 0.256713
rclavicle 4.67144e-015 -1.59028e-015
rhumerus -37.5326 -29.7835 -71.0778
rradius 22.0742
rwrist 42.579
rhand -3.42116 -9.1068
rfingers 7.12502
rthumb 22.3097 -37.8389
lclavicle 4.67144e-015 -1.59028e-015
lhumerus -39.1888 35.7979 61.1608
lradius 13.581
lwrist -75.4119
lhand -2.49717 5.59698
lfingers 7.12502
lthumb 23.1965 34.2201
rfemur -20.8549 5.52564 21.712
rtibia 32.791
rfoot -7.32871 -16.7253
rtoes -12.6058
lfemur -18.7634 -7.68536 -22.3562
ltibia 33.1274
lfoot 1.63608 23.0629
ltoes 9.12958
145
root 1.73845 16.2811 2.23187 -166.216 -1.67665 179.016
lowerback -5.88554 0.549361 -5.92947
upperback 0.533479 1.14452 -0.858527
thorax 3.76063 0.436304 2.53905
lowerneck -38.1499 -2.17932 -1.03814
upperneck 36.328 -5.52222 3.39077
head 21.1822 -1.96679 0.245066
rclavicle -4.17448e-015 -3.33958e-014
rhumerus -37.9446 -29.5826 -70.7274
rradius 22.1516
rwrist 42.7639
rhand -3.27878 -9.03423
rfingers 7.12502
rthumb 22.4464 -37.7499
lclavicle -4.17448e-015 -3.33958e-014
lhumerus -41.0994 38.4469 58.0006
lradius 13.1553
lwrist -78.5782
lhand -2.39464 5.66378
lfingers 7.12502
lthumb 23.2948 34.2745
rfemur -20.8127 5.57503 21.7547
rtibia 32.8132
rfoot -7.53822 -16.9846
rtoes -12.94
lfemur -18.8104 -7.82305 -22.2907
ltibia 33.1549
lfoot 1.47642 23.0453
ltoes 8.8964
146
root 1.742 16.2661 2.2136 -166.178 -1.91309 179.055
lowerback -5.80543 0.554709 -5.85892
upperback 0.55027 1.14263 -0.832023
thorax 3.73382 0.437937 2.52579
lowerneck -37.9449 -2.25601 -1.04975
upperneck 36.4255 -5.66572 3.36203
head 21.1988 -2.03709 0.189533
rclavicle 7.15625e-015 1.27222e-014
rhumerus -38.3907 -29.8483 -70.0967
rradius 22.0035
rwrist 43.3337
rhand -3.20508 -8.68374
rfingers 7.12502
rthumb 22.5171 -37.3908
lclavicle 7.15625e-015 1.27222e-014
lhumerus -42.814 40.4597 55.2131
lradius 12.8627
lwrist -81.2027
lhand -2.29242 5.88113
lfingers 7.12502
lthumb 23.3929 34.4794
rfemur -20.7059 5.59732 21.8417
rtibia 32.8065
rfoot -7.71445 -17.2121
rtoes -13.3106
lfemur -18.7875 -7.94629 -22.1869
ltibia 33.1974
lfoot 1.07419 23.1109
ltoes 7.70177
147
root 1.74377 16.2507 2.19254 -166.1 -2.1304 179.026
lowerback -5.8262 0.500886 -5.79668
upperback 0.672875 1.07492 -0.821132
thorax 3.88008 0.399981 2.49771
lowerneck -38.1985 -2.32215 -1.392
upperneck 36.6149 -5.67512 3.58192
head 21.4178 -2.052 0.356675
rclavicle -1.30204e-014 -8.34896e-015
rhumerus -38.3489 -29.7551 -69.897
rradius 21.8401
rwrist 43.196
rhand -3.12431 -8.72582
rfingers 7.12502
rthumb 22.5947 -37.4235
lclavicle -1.30204e-014 -8.34896e-015
lhumerus -45.1625 43.5525 51.2929
lradius 12.423
lwrist -85.1917
lhand -2.47921 5.64339
lfingers 7.12502
lthumb 23.2137 34.2644
rfemur -20.6546 5.63668 21.8383
rtibia 32.7935
rfoot -7.91233 -17.4775
rtoes -13.583
lfemur -18.7621 -8.18331 -22.1674
ltibia 33.2229
lfoot 0.908233 23.195
ltoes 6.73605
148
root 1.74529 16.2331 2.1714 -166.05 -2.39633 179.027
lowerback -5.79082 0.470783 -5.71258
upperback 0.611207 1.02378 -0.825145
thorax 3.80146 0.379781 2.44106
lowerneck -37.7926 -2.24229 -1.19389
upperneck 36.3535 -5.54204 3.38384
head 21.1148 -2.01188 0.262247
rclavicle 3.97569e-016 4.37326e-015
rhumerus -38.842 -29.5517 -69.559
rradius 21.8976
rwrist 43.0307
rhand -2.86178 -8.79504
rfingers 7.12502
rthumb 22.8466 -37.4618
lclavicle 3.97569e-016 4.37326e-015
lhumerus -47.2614 45.0395 48.2739
lradius 12.272
lwrist -87.5951
lhand -2.21795 5.74276
lfingers 7.12502
lthumb 23.4643 34.3319
rfemur -20.5613 5.56821 21.8767
rtibia 32.774
rfoot -8.22679 -17.6599
rtoes -13.8714
lfemur -18.7227 -8.40129 -22.0934
ltibia 33.2611
lfoot 0.610868 23.2326
ltoes 6.40235
149
root 1.74721 16.2156 2.15056 -166.03 -2.58996 179.115
lowerback -5.81079 0.455727 -5.59027
upperback 0.677239 1.00057 -0.751454
thorax 3.88409 0.368457 2.4479
lowerneck -37.5202 -2.28899 -1.35953
upperneck 36.4218 -5.61069 3.50882
head 21.1085 -2.05618 0.333945
rclavicle -8.64713e-015 1.86858e-014
rhumerus -39.0423 -29.3258 -69.2612
rradius 21.88
rwrist 43.1373
rhand -2.69973 -8.66565
rfingers 7.12502
rthumb 23.0021 -37.3131
lclavicle -8.64713e-015 1.86858e-014
lhumerus -51.0377 48.3422 42.86
lradius 11.9717
lwrist -92.587
lhand -2.39422 5.46425
lfingers 7.12502
lthumb 23.2952 34.0749
rfemur -20.4362 5.60474 21.9988
rtibia 32.7484
rfoot -8.51572 -17.8459
rtoes -14.1125
lfemur -18.6501 -8.56556 -21.939
ltibia 33.2933
lfoot 0.250269 23.333
ltoes 6.05578
150
root 1.7508 16.1982 2.14188 -165.964 -2.7133 179.188
lowerback -5.64756 0.524864 -5.48247
upperback 0.6882 1.07584 -0.739641
thorax 3.79859 0.410972 2.40398
lowerneck -37.4311 -2.27974 -1.27336
upperneck 36.2744 -5.55247 3.38386
head 20.9752 -2.03815 0.27444
rclavicle -1.98785e-016 -1.70955e-014
rhumerus -39.1849 -28.979 -69.246
rradius 22.0382
rwrist 42.412
rhand -2.52291 -8.76968
rfingers 7.12502
rthumb 23.1718 -37.3959
lclavicle -1.98785e-016 -1.70955e-014
lhumerus -54.5494 50.9212 37.8417
lradius 11.664
lwrist -96.5012
lhand -2.44549 5.56491
lfingers 7.12502
lthumb 23.2461 34.1818
rfemur -20.4271 5.85516 22.0829
rtibia 32.7199
rfoot -8.70809 -18.1468
rtoes -14.4445
lfemur -18.7275 -8.6312 -21.7884
ltibia 33.3291
lfoot 0.124547 23.3788
ltoes 5.30085
151
root 1.75047 16.1777 2.12249 -165.941 -2.90036 179.276
lowerback -5.66739 0.545297 -5.3148
upperback 0.735951 1.09624 -0.727213
thorax 3.86033 0.423027 2.32547
lowerneck -37.5898 -2.34145 -1.55728
upperneck 36.7311 -5.67708 3.59409
head 21.3476 -2.10262 0.389222
rclavicle 8.34896e-015 4.37326e-015
rhumerus -39.3734 -28.8356 -69.0872
rradius 22.0464
rwrist 42.0608
rhand -2.53018 -8.79646
rfingers 7.12502
rthumb 23.1648 -37.4236
lclavicle 8.34896e-015 4.37326e-015
lhumerus -59.5285 53.7692 31.1348
lradius 11.4404
lwrist -101.476
lhand -2.4406 5.45202
lfingers 7.12502
lthumb 23.2507 34.0683
rfemur -20.2978 5.80377 22.2021
rtibia 32.6756
rfoot -8.99502 -18.2734
rtoes -14.7863
lfemur -18.6834 -8.70991 -21.639
ltibia 33.3547
lfoot -0.205359 23.4609
ltoes 4.8086
152
root 1.75121 16.1567 2.1028 -165.962 -3.01257 179.335
lowerback -5.67049 0.574793 -5.23282
upperback 0.835972 1.13494 -0.678049
thorax 3.96369 0.440407 2.33482
lowerneck -37.494 -2.40592 -1.82737
upperneck 36.9592 -5.75657 3.76368
head 21.5027 -2.15855 0.497651
rclavicle -3.77691e-015 -1.78906e-014
rhumerus -39.481 -28.6641 -68.8721
rradius 22.0691
rwrist 42.1274
rhand -2.37644 -8.6663
rfingers 7.12502
rthumb 23.3123 -37.2748
lclavicle -3.77691e-015 -1.78906e-014
lhumerus -64.3955 55.9659 24.9365
lradius 11.3377
lwrist -105.582
lhand -2.38387 5.5653
lfingers 7.12502
lthumb 23.3052 34.1747
rfemur -20.1347 5.79621 22.2867
rtibia 32.6375
rfoot -9.29681 -18.3953
rtoes -16.3753
lfemur -18.5841 -8.7392 -21.5308
ltibia 33.3726
lfoot -0.667588 23.5952
ltoes 4.6643
